<?xml version="1.0" encoding="UTF-8" standalone="no"?>
<svg
   version="1.2"
   width="48mm"
   height="20mm"
   viewBox="0 0 36.419514 15.1748"
   id="svg256"
   sodipodi:docname="secondvoicestyle.svg"
   inkscape:version="1.1.2 (0a00cf5339, 2022-02-04)"
   xmlns:inkscape="http://www.inkscape.org/namespaces/inkscape"
   xmlns:sodipodi="http://sodipodi.sourceforge.net/DTD/sodipodi-0.dtd"
   xmlns:xlink="http://www.w3.org/1999/xlink"
   xmlns="http://www.w3.org/2000/svg"
   xmlns:svg="http://www.w3.org/2000/svg">
  <defs
     id="defs260" />
  <sodipodi:namedview
     id="namedview258"
     pagecolor="#ffffff"
     bordercolor="#666666"
     borderopacity="1.0"
     inkscape:pageshadow="2"
     inkscape:pageopacity="0.0"
     inkscape:pagecheckerboard="0"
     inkscape:document-units="mm"
     showgrid="false"
     inkscape:zoom="0.85800595"
     inkscape:cx="203.96129"
     inkscape:cy="396.26765"
     inkscape:window-width="1920"
     inkscape:window-height="996"
     inkscape:window-x="0"
     inkscape:window-y="0"
     inkscape:window-maximized="1"
     inkscape:current-layer="svg256" />
  <style
     type="text/css"
     id="style2"><![CDATA[
tspan { white-space: pre; }
]]></style>
  <g
     transform="translate(3.7937,3.7937)"
     id="g4" />
  <g
     transform="translate(1.2300542,7.2144375)"
     id="g8">
    <line
       stroke-linejoin="round"
       stroke-linecap="round"
       stroke-width="0.1219"
       stroke="currentColor"
       x1="0.061000001"
       y1="0"
       x2="33.030701"
       y2="0"
       id="line6" />
  </g>
  <g
     transform="translate(1.2300542,6.2144375)"
     id="g12">
    <line
       stroke-linejoin="round"
       stroke-linecap="round"
       stroke-width="0.1219"
       stroke="currentColor"
       x1="0.061000001"
       y1="0"
       x2="33.030701"
       y2="0"
       id="line10" />
  </g>
  <g
     transform="translate(1.2300542,5.2144375)"
     id="g16">
    <line
       stroke-linejoin="round"
       stroke-linecap="round"
       stroke-width="0.1219"
       stroke="currentColor"
       x1="0.061000001"
       y1="0"
       x2="33.030701"
       y2="0"
       id="line14" />
  </g>
  <g
     transform="translate(1.2300542,4.2144375)"
     id="g20">
    <line
       stroke-linejoin="round"
       stroke-linecap="round"
       stroke-width="0.1219"
       stroke="currentColor"
       x1="0.061000001"
       y1="0"
       x2="33.030701"
       y2="0"
       id="line18" />
  </g>
  <g
     transform="translate(1.2300542,3.2144375)"
     id="g24">
    <line
       stroke-linejoin="round"
       stroke-linecap="round"
       stroke-width="0.1219"
       stroke="currentColor"
       x1="0.061000001"
       y1="0"
       x2="33.030701"
       y2="0"
       id="line22" />
  </g>
  <g
     transform="translate(14.662154,5.2144375)"
     id="g28">
    <rect
       x="0"
       y="-2"
       width="0.2316"
       height="4"
       ry="0.0000"
       fill="currentColor"
       id="rect26" />
  </g>
  <g
     transform="translate(34.090154,5.2144375)"
     id="g32">
    <rect
       x="0"
       y="-2"
       width="0.2316"
       height="4"
       ry="0.0000"
       fill="currentColor"
       id="rect30" />
  </g>
  <g
     color="rgba(50.0000%, 50.0000%, 50.0000%, 100.0000%)"
     id="g38"
     transform="translate(-2.5636458,-3.7042625)">
    <g
       transform="translate(29.6892,4.847)"
       id="g36">
      <path
         transform="scale(0.004,-0.004)"
         d="M 0,-250 V -375 H -19 V 0 H 0 c 0,-197 207,-334 207,-531 0,-71 -15,-140 -41,-206 -5,-9 -14,-13 -22,-13 -13,0 -26,10 -26,25 v 5 c 26,60 43,124 43,189 0,102 -92,206 -161,281 z"
         fill="currentColor"
         id="path34" />
    </g>
  </g>
  <g
     color="rgba(50.0000%, 50.0000%, 50.0000%, 100.0000%)"
     id="g44"
     transform="translate(-2.5636458,-3.7042625)">
    <g
       transform="translate(29.61,8.9187)"
       id="g42">
      <rect
         x="-0.0792"
         y="-4.125"
         width="0.1585"
         height="2.9535999"
         ry="0.053300001"
         fill="currentColor"
         id="rect40" />
    </g>
  </g>
  <a
     style="color:inherit"
     xlink:href="textedit:///home/zuk/Dokumente/Git-Repos/georgienfahrt/lilypond-song-includes/liedbausteine/00_vorlage_light.ly:7:18:19"
     id="a52"
     transform="translate(-2.5636458,-3.7042625)">
    <g
       transform="translate(26.3984,16.5732)"
       id="g50">
      <text
         font-family="'Liberation Sans'"
         font-size="2.6465px"
         text-anchor="start"
         fill="currentColor"
         id="text48"><tspan
           id="tspan46">Tüm</tspan></text>
    </g>
  </a>
  <g
     color="rgba(50.0000%, 50.0000%, 50.0000%, 100.0000%)"
     id="g60"
     transform="translate(-2.5636458,-3.7042625)">
    <a
       style="color:inherit"
       xlink:href="textedit:///home/zuk/Dokumente/Git-Repos/georgienfahrt/lilypond-song-includes/liedbausteine/00_vorlage_light.ly:22:11:12"
       id="a58">
      <g
         transform="translate(28.3884,7.9187)"
         id="g56">
        <path
           transform="scale(0.004,-0.004)"
           d="M 211,138 C 270,138 325,108 325,43 325,25 321,7 313,-10 284,-76 204,-138 114,-138 55,-138 0,-108 0,-43 0,-25 4,-7 12,10 41,76 121,138 211,138 Z"
           fill="currentColor"
           id="path54" />
      </g>
    </a>
  </g>
  <g
     color="rgba(50.0000%, 50.0000%, 50.0000%, 100.0000%)"
     id="g66"
     transform="translate(-2.5636458,-3.7042625)">
    <g
       transform="translate(24.8461,4.847)"
       id="g64">
      <path
         transform="scale(0.004,-0.004)"
         d="M 0,-250 V -375 H -19 V 0 H 0 c 0,-197 207,-334 207,-531 0,-71 -15,-140 -41,-206 -5,-9 -14,-13 -22,-13 -13,0 -26,10 -26,25 v 5 c 26,60 43,124 43,189 0,102 -92,206 -161,281 z"
         fill="currentColor"
         id="path62" />
    </g>
  </g>
  <g
     color="rgba(50.0000%, 50.0000%, 50.0000%, 100.0000%)"
     id="g72"
     transform="translate(-2.5636458,-3.7042625)">
    <g
       transform="translate(24.7669,8.9187)"
       id="g70">
      <rect
         x="-0.0792"
         y="-4.125"
         width="0.1585"
         height="2.9535999"
         ry="0.053300001"
         fill="currentColor"
         id="rect68" />
    </g>
  </g>
  <a
     style="color:inherit"
     xlink:href="textedit:///home/zuk/Dokumente/Git-Repos/georgienfahrt/lilypond-song-includes/liedbausteine/00_vorlage_light.ly:7:14:15"
     id="a80"
     transform="translate(-2.5636458,-3.7042625)">
    <g
       transform="translate(22.443,16.5732)"
       id="g78">
      <text
         font-family="'Liberation Sans'"
         font-size="2.6465px"
         text-anchor="start"
         fill="currentColor"
         id="text76"><tspan
           id="tspan74">len</tspan></text>
    </g>
  </a>
  <g
     color="rgba(50.0000%, 50.0000%, 50.0000%, 100.0000%)"
     id="g88"
     transform="translate(-2.5636458,-3.7042625)">
    <a
       style="color:inherit"
       xlink:href="textedit:///home/zuk/Dokumente/Git-Repos/georgienfahrt/lilypond-song-includes/liedbausteine/00_vorlage_light.ly:22:8:9"
       id="a86">
      <g
         transform="translate(23.5453,7.9187)"
         id="g84">
        <path
           transform="scale(0.004,-0.004)"
           d="M 211,138 C 270,138 325,108 325,43 325,25 321,7 313,-10 284,-76 204,-138 114,-138 55,-138 0,-108 0,-43 0,-25 4,-7 12,10 41,76 121,138 211,138 Z"
           fill="currentColor"
           id="path82" />
      </g>
    </a>
  </g>
  <g
     color="rgba(50.0000%, 50.0000%, 50.0000%, 100.0000%)"
     id="g94"
     transform="translate(-2.5636458,-3.7042625)">
    <g
       transform="translate(34.1031,8.9187)"
       id="g92">
      <rect
         x="-0.0792"
         y="-3"
         width="0.1585"
         height="3.3285999"
         ry="0.053300001"
         fill="currentColor"
         id="rect90" />
    </g>
  </g>
  <a
     style="color:inherit"
     xlink:href="textedit:///home/zuk/Dokumente/Git-Repos/georgienfahrt/lilypond-song-includes/liedbausteine/00_vorlage_light.ly:7:25:26"
     id="a102"
     transform="translate(-2.5636458,-3.7042625)">
    <g
       transform="translate(31.7792,16.5732)"
       id="g100">
      <text
         font-family="'Liberation Sans'"
         font-size="2.6465px"
         text-anchor="start"
         fill="currentColor"
         id="text98"><tspan
           id="tspan96">pel</tspan></text>
    </g>
  </a>
  <g
     color="rgba(50.0000%, 50.0000%, 50.0000%, 100.0000%)"
     id="g110"
     transform="translate(-2.5636458,-3.7042625)">
    <a
       style="color:inherit"
       xlink:href="textedit:///home/zuk/Dokumente/Git-Repos/georgienfahrt/lilypond-song-includes/liedbausteine/00_vorlage_light.ly:22:14:15"
       id="a108">
      <g
         transform="translate(32.8815,9.4187)"
         id="g106">
        <path
           transform="scale(0.004,-0.004)"
           d="M 211,138 C 270,138 325,108 325,43 325,25 321,7 313,-10 284,-76 204,-138 114,-138 55,-138 0,-108 0,-43 0,-25 4,-7 12,10 41,76 121,138 211,138 Z"
           fill="currentColor"
           id="path104" />
      </g>
    </a>
  </g>
  <g
     color="rgba(50.0000%, 50.0000%, 50.0000%, 100.0000%)"
     id="g116"
     transform="translate(-2.5636458,-3.7042625)">
    <g
       transform="translate(14.8726,7.972)"
       id="g114">
      <path
         transform="scale(0.004,-0.004)"
         d="M 0,-250 V -375 H -19 V 0 H 0 c 0,-197 207,-334 207,-531 0,-71 -15,-140 -41,-206 -5,-9 -14,-13 -22,-13 -13,0 -26,10 -26,25 v 5 c 26,60 43,124 43,189 0,102 -92,206 -161,281 z"
         fill="currentColor"
         id="path112" />
    </g>
  </g>
  <g
     color="rgba(50.0000%, 50.0000%, 50.0000%, 100.0000%)"
     id="g122"
     transform="translate(-2.5636458,-3.7042625)">
    <g
       transform="translate(14.7933,8.9187)"
       id="g120">
      <rect
         x="-0.0792"
         y="-1"
         width="0.1585"
         height="3.3285999"
         ry="0.053300001"
         fill="currentColor"
         id="rect118" />
    </g>
  </g>
  <a
     style="color:inherit"
     xlink:href="textedit:///home/zuk/Dokumente/Git-Repos/georgienfahrt/lilypond-song-includes/liedbausteine/00_vorlage_light.ly:7:2:3"
     id="a130"
     transform="translate(-2.5636458,-3.7042625)">
    <g
       transform="translate(12.2418,16.5732)"
       id="g128">
      <text
         font-family="'Liberation Sans'"
         font-size="2.6465px"
         text-anchor="start"
         fill="currentColor"
         id="text126"><tspan
           id="tspan124">Die</tspan></text>
    </g>
  </a>
  <a
     style="color:inherit"
     xlink:href="textedit:///home/zuk/Dokumente/Git-Repos/georgienfahrt/lilypond-song-includes/liedbausteine/00_vorlage_light.ly:12:2:3"
     id="a140"
     transform="translate(-2.5636458,-3.7042625)">
    <g
       transform="translate(10.1377,8.9187)"
       id="g134">
      <path
         transform="scale(0.004,-0.004)"
         d="m 173,259 c -47,0 -50,-38 -50,-88 v -29 -29 c 0,-50 3,-87 50,-87 56,0 58,50 58,116 0,66 -2,117 -58,117 z m -51,11 c 15,9 32,14 51,14 103,0 173,-46 173,-142 C 346,46 276,0 173,0 60,0 0,124 0,250 c 0,129 75,250 194,250 71,0 138,-41 138,-106 0,-35 -29,-64 -64,-64 -35,0 -64,29 -64,64 0,23 38,25 38,48 0,21 -24,32 -48,32 -63,0 -73,-59 -73,-130 0,-24 1,-49 1,-74 z"
         fill="currentColor"
         id="path132" />
    </g>
    <g
       transform="translate(10.0694,10.9185)"
       id="g138">
      <path
         transform="scale(0.004,-0.004)"
         d="m 263,292 c 24,29 43,61 43,99 0,52 -55,83 -112,83 -45,0 -71,-35 -71,-68 0,-20 10,-38 30,-50 z m 34,-20 C 351,241 378,193 378,146 378,72 312,0 186,0 90,0 0,53 0,141 c 0,49 36,87 72,122 -36,28 -55,65 -55,102 0,68 61,135 177,135 81,0 160,-37 160,-109 0,-46 -26,-85 -57,-119 z M 105,242 C 75,213 48,182 48,141 48,73 114,26 186,26 c 53,0 85,41 85,80 0,23 -11,47 -34,60 z"
         fill="currentColor"
         id="path136" />
    </g>
  </a>
  <a
     style="color:inherit"
     xlink:href="textedit:///home/zuk/Dokumente/Git-Repos/georgienfahrt/lilypond-song-includes/liedbausteine/00_vorlage_light.ly:11:2:3"
     id="a146"
     transform="translate(-2.5636458,-3.7042625)">
    <g
       transform="translate(8.1194,8.9187)"
       id="g144">
      <path
         transform="scale(0.004,-0.004)"
         d="m 31,37 -2,-62 v -11 c 0,-22 2,-43 5,-64 43,38 89,80 89,137 0,32 -14,65 -42,65 C 50,102 32,70 31,37 Z m -61,413 c 9,5 20,8 30,8 10,0 21,-3 30,-8 L 22,110 c 25,24 59,38 94,38 50,0 84,-50 84,-104 0,-78 -83,-117 -141,-169 -17,-15 -25,-44 -49,-44 -15,0 -26,13 -26,29 z"
         fill="currentColor"
         id="path142" />
    </g>
  </a>
  <g
     transform="translate(2.0300542,6.2144375)"
     id="g150">
    <path
       transform="scale(0.004,-0.004)"
       d="m 246,555 c -31,95 -56,192 -56,311 0,140 41,246 148,324 4,3 8,4 12,4 5,0 9,-2 13,-5 72,-83 135,-243 135,-356 0,-142 -84,-255 -176,-364 21,-68 40,-136 57,-205 3,0 8,1 11,1 157,0 257,-129 257,-263 0,-77 -33,-155 -108,-211 -22,-16 -46,-29 -72,-37 3,-33 4,-66 4,-99 0,-21 0,-41 -1,-62 -7,-121 -91,-229 -211,-229 -108,0 -196,88 -196,197 0,58 54,103 113,103 54,0 95,-47 95,-103 0,-52 -43,-95 -95,-95 -9,0 -18,1 -27,4 25,-37 66,-61 113,-61 95,0 156,93 162,191 1,19 2,38 2,57 0,29 -1,58 -3,87 -29,-5 -58,-8 -88,-8 C 146,-264 2,-91 2,112 2,289 131,420 246,555 Z M 406,148 c 24,-114 44,-227 57,-349 74,28 108,92 108,158 0,87 -59,178 -165,191 z M 77,25 c 0,-133 128,-243 261,-243 27,0 55,1 81,5 C 406,-87 384,31 359,149 280,141 235,89 235,31 c 0,-43 25,-88 80,-120 5,-5 7,-11 7,-17 0,-12 -10,-23 -23,-23 -3,0 -7,1 -10,2 -81,43 -118,115 -118,186 0,89 60,177 163,200 -14,57 -30,113 -47,169 C 182,306 77,185 77,25 Z m 166,757 c 0,-70 20,-129 38,-186 76,94 143,199 143,323 0,38 -7,77 -21,119 C 302,991 243,897 243,782 Z"
       fill="currentColor"
       id="path148" />
  </g>
  <g
     color="rgba(50.0000%, 50.0000%, 50.0000%, 100.0000%)"
     id="g158"
     transform="translate(-2.5636458,-3.7042625)">
    <a
       style="color:inherit"
       xlink:href="textedit:///home/zuk/Dokumente/Git-Repos/georgienfahrt/lilypond-song-includes/liedbausteine/00_vorlage_light.ly:21:12:13"
       id="a156">
      <g
         transform="translate(13.5717,11.4187)"
         id="g154">
        <path
           transform="scale(0.004,-0.004)"
           d="M 211,138 C 270,138 325,108 325,43 325,25 321,7 313,-10 284,-76 204,-138 114,-138 55,-138 0,-108 0,-43 0,-25 4,-7 12,10 41,76 121,138 211,138 Z"
           fill="currentColor"
           id="path152" />
      </g>
    </a>
  </g>
  <g
     color="rgba(50.0000%, 50.0000%, 50.0000%, 100.0000%)"
     id="g164"
     transform="translate(-2.5636458,-3.7042625)">
    <g
       transform="translate(20.0689,8.9187)"
       id="g162">
      <rect
         x="-0.0792"
         y="-4"
         width="0.1585"
         height="2.8285999"
         ry="0.053300001"
         fill="currentColor"
         id="rect160" />
    </g>
  </g>
  <a
     style="color:inherit"
     xlink:href="textedit:///home/zuk/Dokumente/Git-Repos/georgienfahrt/lilypond-song-includes/liedbausteine/00_vorlage_light.ly:7:6:7"
     id="a172"
     transform="translate(-2.5636458,-3.7042625)">
    <g
       transform="translate(16.6525,16.5732)"
       id="g170">
      <text
         font-family="'Liberation Sans'"
         font-size="2.6465px"
         text-anchor="start"
         fill="currentColor"
         id="text168"><tspan
           id="tspan166">dunk</tspan></text>
    </g>
  </a>
  <g
     color="rgba(50.0000%, 50.0000%, 50.0000%, 100.0000%)"
     id="g180"
     transform="translate(-2.5636458,-3.7042625)">
    <a
       style="color:inherit"
       xlink:href="textedit:///home/zuk/Dokumente/Git-Repos/georgienfahrt/lilypond-song-includes/liedbausteine/00_vorlage_light.ly:22:4:5"
       id="a178">
      <g
         transform="translate(18.8473,7.9187)"
         id="g176">
        <path
           transform="scale(0.004,-0.004)"
           d="M 211,138 C 270,138 325,108 325,43 325,25 321,7 313,-10 284,-76 204,-138 114,-138 55,-138 0,-108 0,-43 0,-25 4,-7 12,10 41,76 121,138 211,138 Z"
           fill="currentColor"
           id="path174" />
      </g>
    </a>
  </g>
  <a
     style="color:inherit"
     xlink:href="textedit:///home/zuk/Dokumente/Git-Repos/georgienfahrt/lilypond-song-includes/liedbausteine/00_vorlage_light.ly:17:8:9"
     id="a186"
     transform="translate(-2.5636458,-3.7042625)">
    <g
       transform="translate(23.5453,9.4187)"
       id="g184">
      <path
         transform="scale(0.004,-0.004)"
         d="M 211,138 C 270,138 325,108 325,43 325,25 321,7 313,-10 284,-76 204,-138 114,-138 55,-138 0,-108 0,-43 0,-25 4,-7 12,10 41,76 121,138 211,138 Z"
         fill="currentColor"
         id="path182" />
    </g>
  </a>
  <g
     transform="translate(21.060854,5.2144375)"
     id="g190">
    <rect
       x="-0.0792"
       y="0.67140001"
       width="0.1585"
       height="3.0785999"
       ry="0.053300001"
       fill="currentColor"
       id="rect188" />
  </g>
  <a
     style="color:inherit"
     xlink:href="textedit:///home/zuk/Dokumente/Git-Repos/georgienfahrt/lilypond-song-includes/liedbausteine/00_vorlage_light.ly:16:12:13"
     id="a196"
     transform="translate(-2.5636458,-3.7042625)">
    <g
       transform="translate(13.5717,11.4187)"
       id="g194">
      <path
         transform="scale(0.004,-0.004)"
         d="M 211,138 C 270,138 325,108 325,43 325,25 321,7 313,-10 284,-76 204,-138 114,-138 55,-138 0,-108 0,-43 0,-25 4,-7 12,10 41,76 121,138 211,138 Z"
         fill="currentColor"
         id="path192" />
    </g>
  </a>
  <g
     transform="translate(11.166554,10.661137)"
     id="g200">
    <path
       transform="scale(0.004,-0.004)"
       d="M 0,0 H -19 V 375 H 0 Z m 0,0 v 250 c 95,59 220,149 220,259 0,56 -16,111 -41,161 v 5 c 0,15 13,25 26,25 8,0 17,-4 22,-13 25,-56 40,-116 40,-178 C 267,306 0,203 0,0 Z"
       fill="currentColor"
       id="path198" />
  </g>
  <g
     transform="translate(11.087354,5.2144375)"
     id="g204">
    <rect
       x="-0.0792"
       y="2.6714001"
       width="0.1585"
       height="2.8285999"
       ry="0.053300001"
       fill="currentColor"
       id="rect202" />
  </g>
  <g
     transform="translate(25.983254,8.9111375)"
     id="g208">
    <path
       transform="scale(0.004,-0.004)"
       d="M 0,0 H -19 V 375 H 0 Z m 0,0 v 250 c 95,59 220,149 220,259 0,56 -16,111 -41,161 v 5 c 0,15 13,25 26,25 8,0 17,-4 22,-13 25,-56 40,-116 40,-178 C 267,306 0,203 0,0 Z"
       fill="currentColor"
       id="path206" />
  </g>
  <g
     transform="translate(21.140154,8.9111375)"
     id="g212">
    <path
       transform="scale(0.004,-0.004)"
       d="M 0,0 H -19 V 375 H 0 Z m 0,0 v 250 c 95,59 220,149 220,259 0,56 -16,111 -41,161 v 5 c 0,15 13,25 26,25 8,0 17,-4 22,-13 25,-56 40,-116 40,-178 C 267,306 0,203 0,0 Z"
       fill="currentColor"
       id="path210" />
  </g>
  <g
     transform="translate(16.362954,5.2144375)"
     id="g216">
    <rect
       x="-0.0792"
       y="0.67140001"
       width="0.1585"
       height="2.9953001"
       ry="0.053300001"
       fill="currentColor"
       id="rect214" />
  </g>
  <g
     transform="translate(30.397054,5.2144375)"
     id="g220">
    <rect
       x="-0.0792"
       y="1.6714"
       width="0.1585"
       height="2.6619"
       ry="0.053300001"
       fill="currentColor"
       id="rect218" />
  </g>
  <a
     style="color:inherit"
     xlink:href="textedit:///home/zuk/Dokumente/Git-Repos/georgienfahrt/lilypond-song-includes/liedbausteine/00_vorlage_light.ly:17:14:15"
     id="a226"
     transform="translate(-2.5636458,-3.7042625)">
    <g
       transform="translate(32.8815,10.4187)"
       id="g224">
      <path
         transform="scale(0.004,-0.004)"
         d="M 211,138 C 270,138 325,108 325,43 325,25 321,7 313,-10 284,-76 204,-138 114,-138 55,-138 0,-108 0,-43 0,-25 4,-7 12,10 41,76 121,138 211,138 Z"
         fill="currentColor"
         id="path222" />
    </g>
  </a>
  <g
     transform="translate(25.903954,5.2144375)"
     id="g230">
    <rect
       x="-0.0792"
       y="0.67140001"
       width="0.1585"
       height="3.0785999"
       ry="0.053300001"
       fill="currentColor"
       id="rect228" />
  </g>
  <a
     style="color:inherit"
     xlink:href="textedit:///home/zuk/Dokumente/Git-Repos/georgienfahrt/lilypond-song-includes/liedbausteine/00_vorlage_light.ly:17:11:12"
     id="a236"
     transform="translate(-2.5636458,-3.7042625)">
    <g
       transform="translate(28.3884,9.4187)"
       id="g234">
      <path
         transform="scale(0.004,-0.004)"
         d="M 211,138 C 270,138 325,108 325,43 325,25 321,7 313,-10 284,-76 204,-138 114,-138 55,-138 0,-108 0,-43 0,-25 4,-7 12,10 41,76 121,138 211,138 Z"
         fill="currentColor"
         id="path232" />
    </g>
  </a>
  <a
     style="color:inherit"
     xlink:href="textedit:///home/zuk/Dokumente/Git-Repos/georgienfahrt/lilypond-song-includes/liedbausteine/00_vorlage_light.ly:17:4:5"
     id="a242"
     transform="translate(-2.5636458,-3.7042625)">
    <g
       transform="translate(18.8473,9.4187)"
       id="g240">
      <path
         transform="scale(0.004,-0.004)"
         d="M 211,138 C 270,138 325,108 325,43 325,25 321,7 313,-10 284,-76 204,-138 114,-138 55,-138 0,-108 0,-43 0,-25 4,-7 12,10 41,76 121,138 211,138 Z"
         fill="currentColor"
         id="path238" />
    </g>
  </a>
  <g
     transform="translate(6.4930542,12.868937)"
     id="g248">
    <text
       font-family="'Liberation Sans'"
       font-weight="bold"
       font-size="2.6465px"
       text-anchor="start"
       fill="currentColor"
       id="text246"><tspan
         id="tspan244">1.</tspan></text>
  </g>
</svg>
